/*
** Simple bitmap for "point"
*/

#define point_width  9
#define point_height 9
static char point_bits[] = {
 0x10, 0x00,  0x38, 0x00,  0x7c, 0x00,  0xfe, 0x00
 0xff, 0x01,
 0xfe, 0x00,  0x7c, 0x00,  0x38, 0x00,  0x10, 0x00
};
